<svg version="1.1" xmlns="http://www.w3.org/2000/svg" xmlns:xlink="http://www.w3.org/1999/xlink" x="0px" y="0px"
	 viewBox="0 0 100 100" style="enable-background:new 0 0 100 100;" xml:space="preserve">

<g>
	<path d="M74.2,4c5.4,0,9.8,4.4,9.8,9.8v69.4c0,5.4-4.4,9.8-9.8,9.8H25.8c-5.4,0-9.8-4.4-9.8-9.8V13.8
		C16,8.4,20.4,4,25.8,4H74.2 M74.2,2H25.8C19.3,2,14,7.3,14,13.8v69.4C14,89.7,19.3,95,25.8,95h48.4C80.7,95,86,89.7,86,83.2V13.8
		C86,7.3,80.7,2,74.2,2L74.2,2z"/>
</g>
<path d="M36.4,12.9c-0.2-0.6-0.7-0.9-1.3-0.9H24.9c-0.6,0-1.1,0.4-1.3,0.9l-2,5.1v7c0,0.5,0.4,0.9,0.9,0.9h0.9
	c0.5,0,0.9-0.4,0.9-0.9v-0.5h11.2v0.5c0,0.5,0.4,0.9,0.9,0.9h0.9c0.5,0,0.9-0.4,0.9-0.9v-7C38.4,18.1,36.4,12.9,36.4,12.9z
	 M24.9,21.8c-0.8,0-1.4-0.6-1.4-1.4c0-0.8,0.6-1.4,1.4-1.4s1.4,0.6,1.4,1.4C26.3,21.2,25.7,21.8,24.9,21.8z M35.1,21.8
	c-0.8,0-1.4-0.6-1.4-1.4c0-0.8,0.6-1.4,1.4-1.4s1.4,0.6,1.4,1.4C36.5,21.2,35.9,21.8,35.1,21.8z M23.5,17.1l1.4-3.7h10.3l1.4,3.7
	H23.5z"/>
<path d="M39.5,44.9h-2.3l-0.6-1.6c-0.7-1.7-2.3-2.7-4.1-2.7h-5c-1.8,0-3.4,1.1-4.1,2.7l-0.6,1.6h-2.3
	c-0.3,0-0.5,0.3-0.5,0.6l0.2,0.9c0.1,0.2,0.2,0.4,0.5,0.4h0.8c-0.5,0.5-0.9,1.1-0.9,1.9v1.9c0,0.6,0.2,1.2,0.6,1.6v2.1
	c0,0.7,0.6,1.2,1.2,1.2h1.2c0.7,0,1.2-0.6,1.2-1.2V53h10v1.2c0,0.7,0.6,1.2,1.2,1.2h1.2c0.7,0,1.2-0.6,1.2-1.2v-2.1
	c0.4-0.4,0.6-1,0.6-1.6v-1.9c0-0.8-0.3-1.4-0.9-1.9h0.8c0.2,0,0.4-0.1,0.5-0.4l0.2-0.9C40.1,45.2,39.8,44.9,39.5,44.9z M25.8,44.2
	c0.3-0.7,1-1.2,1.7-1.2h5c0.8,0,1.5,0.5,1.7,1.2l0.8,1.9H25L25.8,44.2z M23.7,50.5c-0.7,0-1.2-0.5-1.2-1.2S23,48,23.7,48
	s1.9,1.1,1.9,1.9C25.6,50.6,24.5,50.5,23.7,50.5z M36.2,50.5c-0.7,0-1.9,0.1-1.9-0.6c0-0.7,1.1-1.9,1.9-1.9s1.2,0.5,1.2,1.2
	S37,50.5,36.2,50.5z"/>
<path d="M39.5,73.9h-2.3l-0.6-1.6c-0.7-1.6-2.3-2.7-4.1-2.7h-5c-1.8,0-3.4,1.1-4.1,2.7l-0.6,1.6h-2.3
	c-0.3,0-0.5,0.3-0.5,0.6l0.2,0.9c0.1,0.2,0.2,0.3,0.5,0.3h0.8c-0.5,0.4-0.9,1.1-0.9,1.8v1.8c0,0.6,0.2,1.2,0.6,1.6v0.9
	c0,1.4-0.2,1.2,1.2,1.2h1.2c1.3,0,1.2,0,1.2-1.2v0h10v0c0,1.3,0,1.3,1.2,1.2h1.2c1.4,0,1.2,0,1.2-1.2V81c0.4-0.4,0.6-1,0.6-1.6v-1.8
	c0-0.7-0.3-1.4-0.9-1.8h0.8c0.2,0,0.4-0.1,0.5-0.3l0.2-0.9C40.1,74.2,39.8,73.9,39.5,73.9z M24.7,71.8c0.4-0.7,1.2-1.2,2.2-1.2h6.3
	c1,0,1.8,0.5,2.2,1.2l1,2H23.7L24.7,71.8z M23.7,78.5c-0.7,0-1.2-0.5-1.2-1.4c0-0.8,0.6-2.1,1.1-1.4c0.4,0.6,1,0.7,1.1,1.5
	C24.7,78,24.5,78.5,23.7,78.5z M36.2,78.5c-0.7,0-0.9-0.3-0.9-1.1s0.7-1,1.1-1.6c0.4-0.7,1.1,0.5,1.1,1.4
	C37.5,77.9,37,78.5,36.2,78.5z"/>
<path d="M78.5,15h-34c-0.8,0-1.5-0.7-1.5-1.5v0c0-0.8,0.7-1.5,1.5-1.5h34c0.8,0,1.5,0.7,1.5,1.5v0
	C80,14.3,79.3,15,78.5,15z"/>
<path d="M75.7,20H44.4c-0.8,0-1.4-0.6-1.4-1.4v-0.2c0-0.8,0.6-1.4,1.4-1.4h31.2c0.8,0,1.4,0.6,1.4,1.4v0.2
	C77.1,19.4,76.4,20,75.7,20z"/>
<path d="M70.9,25H44.3c-0.7,0-1.3-0.6-1.3-1.3v-0.4c0-0.7,0.6-1.3,1.3-1.3h26.6c0.7,0,1.3,0.6,1.3,1.3v0.4
	C72.2,24.4,71.6,25,70.9,25z"/>
<path d="M71.7,44H44.3c-0.7,0-1.3-0.6-1.3-1.3v-0.3c0-0.7,0.6-1.3,1.3-1.3h27.3c0.7,0,1.3,0.6,1.3,1.3v0.3
	C73,43.4,72.4,44,71.7,44z"/>
<path d="M78.5,49h-34c-0.8,0-1.5-0.7-1.5-1.5v0c0-0.8,0.7-1.5,1.5-1.5h34c0.8,0,1.5,0.7,1.5,1.5v0
	C80,48.3,79.3,49,78.5,49z"/>
<path d="M73.6,54H44.4c-0.8,0-1.4-0.6-1.4-1.4v-0.2c0-0.8,0.6-1.4,1.4-1.4h29.2c0.8,0,1.4,0.6,1.4,1.4v0.2
	C75,53.4,74.4,54,73.6,54z"/>
<path d="M76.6,73H44.4c-0.8,0-1.4-0.6-1.4-1.4v-0.1c0-0.8,0.6-1.4,1.4-1.4h32.1c0.8,0,1.4,0.6,1.4,1.4v0.1
	C78,72.4,77.4,73,76.6,73z"/>
<path d="M62.9,78H44.1c-0.6,0-1.1-0.5-1.1-1.1v-0.8c0-0.6,0.5-1.1,1.1-1.1h18.8c0.6,0,1.1,0.5,1.1,1.1v0.8
	C64,77.5,63.5,78,62.9,78z"/>
<path d="M74.6,83H44.4c-0.8,0-1.4-0.6-1.4-1.4v-0.2c0-0.8,0.6-1.4,1.4-1.4h30.2c0.8,0,1.4,0.6,1.4,1.4v0.2
	C76,82.4,75.4,83,74.6,83z"/>
</svg>
