<?xml version="1.0" standalone="no"?>
<!DOCTYPE svg PUBLIC "-//W3C//DTD SVG 20010904//EN"
 "http://www.w3.org/TR/2001/REC-SVG-20010904/DTD/svg10.dtd">
<svg version="1.0" xmlns="http://www.w3.org/2000/svg"
 width="700.000000pt" height="700.000000pt" viewBox="0 0 700.000000 700.000000"
 preserveAspectRatio="xMidYMid meet">
<metadata>
Created by potrace 1.14, written by Peter Selinger 2001-2017
</metadata>
<g transform="translate(0.000000,700.000000) scale(0.100000,-0.100000)"
fill="#000000" stroke="none">
<path d="M2259 6996 c-2 -2 -35 -7 -74 -10 -38 -4 -77 -9 -85 -11 -8 -2 -37
-6 -63 -9 -27 -3 -52 -8 -55 -10 -4 -2 -25 -7 -47 -10 -141 -23 -405 -115
-586 -207 -81 -40 -267 -150 -299 -175 -8 -7 -53 -41 -100 -76 -78 -58 -305
-274 -376 -358 -153 -181 -296 -418 -387 -640 -36 -87 -85 -226 -92 -257 -2
-10 -12 -54 -24 -98 -11 -44 -22 -91 -25 -105 -14 -81 -16 -98 -21 -125 -3
-16 -8 -61 -12 -100 -10 -93 -10 -2532 0 -2615 7 -62 21 -152 32 -215 11 -56
65 -264 79 -302 50 -133 72 -186 102 -251 19 -41 34 -75 34 -77 0 -8 116 -204
154 -260 226 -337 538 -616 898 -804 168 -89 388 -173 538 -206 201 -46 197
-45 350 -62 36 -5 616 -8 1290 -8 1076 0 1364 4 1413 20 7 2 30 6 53 9 67 8
252 53 349 84 217 70 436 178 626 307 116 80 122 84 238 186 337 293 598 699
726 1129 37 125 43 152 80 355 3 17 9 68 13 115 10 116 9 2530 -1 2605 -14
102 -18 129 -23 155 -2 14 -7 39 -10 55 -16 92 -87 341 -114 400 -5 11 -23 54
-40 95 -59 141 -202 392 -287 500 -327 419 -698 684 -1203 860 -98 34 -299 81
-410 95 -25 3 -61 9 -80 12 -36 7 -2554 16 -2561 9z"/>
</g>
</svg>
